<svg id="Layer_1" data-name="Layer 1" xmlns="http://www.w3.org/2000/svg" xmlns:xlink="http://www.w3.org/1999/xlink" viewBox="0 0 184.15 184.15" shape-rendering="geometricPrecision"><defs><style>.cls-1{fill:#fb2a49;}.cls-2{fill:url(#linear-gradient);}.cls-3{fill:url(#linear-gradient-2);}.cls-4{fill:url(#linear-gradient-3);}.cls-5{fill:url(#linear-gradient-4);}.cls-6{fill:url(#linear-gradient-5);}.cls-7{fill:url(#linear-gradient-6);}.cls-8{fill:url(#linear-gradient-7);}.cls-9{fill:url(#linear-gradient-8);}.cls-10{fill:#4b2a87;}</style><linearGradient id="linear-gradient" x1="372.66" y1="-104.22" x2="372.66" y2="-105.96" gradientTransform="matrix(0.35, 0, 0, -0.55, -72.26, 26.05)" gradientUnits="userSpaceOnUse"><stop offset="0" stop-color="#fe476d"/><stop offset="1" stop-color="#4b2a87"/></linearGradient><linearGradient id="linear-gradient-2" x1="500.5" y1="164.34" x2="500.5" y2="162.6" gradientTransform="matrix(0.31, 0, 0, -1.04, -62.95, 290.56)" xlink:href="#linear-gradient"/><linearGradient id="linear-gradient-3" x1="583.4" y1="5.74" x2="583.4" y2="4" gradientTransform="matrix(0.27, 0, 0, -0.69, -87.61, 102.91)" xlink:href="#linear-gradient"/><linearGradient id="linear-gradient-4" x1="-22.99" y1="354.73" x2="-22.99" y2="352.99" gradientTransform="matrix(0.83, 0, 0, -2.3, 63.12, 902.33)" xlink:href="#linear-gradient"/><linearGradient id="linear-gradient-5" x1="-289.93" y1="492.44" x2="-289.93" y2="490.7" gradientTransform="matrix(26.65, 0, 0, -37.79, 7770.05, 18665.96)" xlink:href="#linear-gradient"/><linearGradient id="linear-gradient-6" x1="-288.27" y1="494.26" x2="-288.27" y2="492.52" gradientTransform="matrix(23.77, 0, 0, -48, 6930.89, 23781.29)" xlink:href="#linear-gradient"/><linearGradient id="linear-gradient-7" x1="-291.13" y1="495.58" x2="-291.13" y2="493.85" gradientTransform="matrix(35.31, 0, 0, -59.7, 10397.72, 29643.42)" xlink:href="#linear-gradient"/><linearGradient id="linear-gradient-8" x1="-287.84" y1="495.28" x2="-289.58" y2="494.11" gradientTransform="matrix(27.61, 0, 0, -59.6, 8119.04, 29592.24)" xlink:href="#linear-gradient"/></defs><title>logo</title><g id="Group_369" data-name="Group 369"><g id="Group_368" data-name="Group 368"><g id="Path_95" data-name="Path 95"><path class="cls-1" d="M100,192.07a92.06,92.06,0,1,1,65.11-27A92.17,92.17,0,0,1,100,192.07Zm0-181.14A89.06,89.06,0,1,0,163,37a89.17,89.17,0,0,0-63-26.08Z" transform="translate(-7.93 -7.93)"/></g><g id="Group_299" data-name="Group 299"><path id="Path_87" data-name="Path 87" class="cls-2" d="M58.1,83.79q-.29.48-.6,1h.57Z" transform="translate(-7.93 -7.93)"/><path id="Path_88" data-name="Path 88" class="cls-3" d="M92.93,121.3l.54-.51-.54-1.3Z" transform="translate(-7.93 -7.93)"/><path id="Path_89" data-name="Path 89" class="cls-4" d="M70.84,99.05l.48,1.1q-.21-.59-.39-1.2Z" transform="translate(-7.93 -7.93)"/><path id="Path_90" data-name="Path 90" class="cls-5" d="M43.34,86.48a33,33,0,0,0,1.44,4c-.53-1.31-1-2.64-1.39-4Z" transform="translate(-7.93 -7.93)"/><path id="Path_91" data-name="Path 91" class="cls-6" d="M63.39,109.11c-.42-.86-.62-1.18-1-2.08a21.72,21.72,0,0,1-2.13,1.58c-2.06,1.29-8-4.28-12.51-12.09a48.62,48.62,0,0,1-3-6.07,24.91,24.91,0,0,1-1.25-3.68s-.18-.3-.14-.32c-1.9-6.66-1.82-13.55,2.5-18.72,4.51-5.39,7.42,1.06,7.47,4.62.11,8.57-9.18,13.68-10,14.1a40.24,40.24,0,0,0,1.39,4c1.05,2.43,2,4.57,2,4.57a3,3,0,0,0,.94-.5A38.46,38.46,0,0,0,58.11,83.79h0a54.84,54.84,0,0,1,1.27-9.37,46.29,46.29,0,0,1,1.71-5.9A17.35,17.35,0,0,0,56,59.1c-6.26-5.91-16.63-5.28-20.36,11.38A40.88,40.88,0,0,0,35.86,90,30,30,0,0,1,21.11,92c-.36,4.15-.34,9.19-.34,9.19s11.67-.33,18.17-3a54.23,54.23,0,0,0,8.82,12.71,65.82,65.82,0,0,0,10.41,9.18c1.26.89,2,1.34,2,1.34h0s3.28-2.51,6.91-5.53A73.35,73.35,0,0,1,63.39,109.11Z" transform="translate(-7.93 -7.93)"/><path id="Path_92" data-name="Path 92" class="cls-7" d="M93.48,120.79l-.55.51a5.6,5.6,0,0,1-2.37,1.58c-1.65.07-4.7-2.11-8-5.69a61.92,61.92,0,0,1-7-9.19l-.21-.32c.68-.71,1.15-1.24,1.11-1.11-.58.61,3.74-3.85,6.1-6.91A57.37,57.37,0,0,0,88,91.27c.1-2.13.3-4.31.61-6.52.25-1.81.57-3.64,1-5.5a58.34,58.34,0,0,1,2-7.2c-2.85-15.93-22.45-25.46-30.54-3.54a46.77,46.77,0,0,0-1.71,5.9,54.84,54.84,0,0,0-1.27,9.37c0,.33,0,.65,0,1a50.73,50.73,0,0,0,2,15.88,53.6,53.6,0,0,0,2.3,6.4c.38.9.78,1.77,1.2,2.63a64.72,64.72,0,0,0,3.51,6.24,80.07,80.07,0,0,0,23.36,23.27h0s4.27-3.27,8.92-7.18A78.8,78.8,0,0,1,93.48,120.79ZM72,97.71c-.42.43-1.28,1.76-1.49,1.19A35,35,0,0,1,69,93.78a33.7,33.7,0,0,1-1.36-9A21,21,0,0,1,72.4,70.92c5.7-6.86,9.39,1.35,9.45,5.87.11,8.07-1.5,10-3.73,13.58-.47.58-1,1.4-1,1.4s-1,1.2-1.29,1.59S74.32,95,72,97.71Z" transform="translate(-7.93 -7.93)"/><path id="Path_93" data-name="Path 93" class="cls-8" d="M128.84,73.19C123.5,55,101.07,45.53,91.63,72.05a59.82,59.82,0,0,0-2,7.21c-.41,1.86-.72,3.69-1,5.49q-.47,3.33-.6,6.52a66.82,66.82,0,0,0,4.92,28.22l.54,1.3A83.23,83.23,0,0,0,99.4,132c14.07,22.53,26.41,27.47,26.41,27.47h0s8.76-2.05,22.63-14.75C154.55,149.36,128.14,96.1,128.84,73.19ZM104.69,111l-.6.48q-.53-1.27-1-2.55a58,58,0,0,1-2.37-8.38c-1.84-9.22-.94-18.44,5-25.73,7-8.65,11.62,1.71,11.7,7.41a22.93,22.93,0,0,1-.1,2.49c-.89,9.9-7.48,19.66-11,24.21C105.21,110.44,104.88,110.81,104.69,111Zm38.36,16.81c-3,3.69-9.23,10.81-14.82,12.6-3,1-10.11-5.28-16.45-14.67-.49-.72-1-1.45-1.44-2.2a1.23,1.23,0,0,1,.25-1.58,59.56,59.56,0,0,0,7.79-9,57,57,0,0,0,8.93-17.51,46.31,46.31,0,0,0,1.22,4.77,49.34,49.34,0,0,0,2.09,5.5,63,63,0,0,0,7.9,12.94,84.1,84.1,0,0,0,6.16,7c-.23.31-.8,1.08-1.63,2.11Z" transform="translate(-7.93 -7.93)"/></g><path id="Path_94" data-name="Path 94" class="cls-9" d="M162.25,148.39l-.3.79,0,0A115.78,115.78,0,0,1,151.41,160s-32.76-41.69-25.09-79.77c5.75-28.54,26.39-26.91,35.48-18.63,18.16,16.56,13.67,46.64-6.9,75l-8-9.8s15.92-23,12.62-43.94C157.25,68,145.7,70.48,143.15,73.33,138,79.09,128.62,105.16,163.41,148" transform="translate(-7.93 -7.93)"/><g id="Path_86" data-name="Path 86"><path class="cls-10" d="M100,181.13a81.13,81.13,0,1,1,0-162.26h0a81.13,81.13,0,0,1,0,162.26Zm0-159.26A78.13,78.13,0,1,0,178.13,100,78.22,78.22,0,0,0,100,21.87Z" transform="translate(-7.93 -7.93)"/></g></g></g></svg>